<?xml version="1.0" encoding="UTF-8" standalone="no"?>
<!-- Created with Inkscape (http://www.inkscape.org/) -->
<svg
   xmlns:dc="http://purl.org/dc/elements/1.1/"
   xmlns:cc="http://creativecommons.org/ns#"
   xmlns:rdf="http://www.w3.org/1999/02/22-rdf-syntax-ns#"
   xmlns:svg="http://www.w3.org/2000/svg"
   xmlns="http://www.w3.org/2000/svg"
   xmlns:xlink="http://www.w3.org/1999/xlink"
   xmlns:sodipodi="http://sodipodi.sourceforge.net/DTD/sodipodi-0.dtd"
   xmlns:inkscape="http://www.inkscape.org/namespaces/inkscape"
   width="130.18048"
   height="129.48804"
   id="svg4050"
   sodipodi:version="0.32"
   inkscape:version="0.46"
   version="1.0"
   sodipodi:docname="icon-brown.svg"
   inkscape:output_extension="org.inkscape.output.svg.inkscape">
  <defs
     id="defs4052">
    <linearGradient
       id="linearGradient3439">
      <stop
         style="stop-color:#803300;stop-opacity:1;"
         offset="0"
         id="stop3441" />
      <stop
         id="stop3447"
         offset="1"
         style="stop-color:#803300;stop-opacity:0.49803922;" />
      <stop
         style="stop-color:#803300;stop-opacity:0;"
         offset="1"
         id="stop3443" />
    </linearGradient>
    <radialGradient
       inkscape:collect="always"
       xlink:href="#linearGradient3439"
       id="radialGradient3445"
       cx="59.204418"
       cy="58.950275"
       fx="59.204418"
       fy="58.950275"
       r="20.427254"
       gradientTransform="matrix(1,0,0,0.8983052,0,5.9949348)"
       gradientUnits="userSpaceOnUse" />
    <linearGradient
       id="linearGradient3399">
      <stop
         style="stop-color:#590000;stop-opacity:1;"
         offset="0"
         id="stop3401" />
      <stop
         id="stop3409"
         offset="0.75"
         style="stop-color:#590e00;stop-opacity:0.49803922;" />
      <stop
         style="stop-color:#210a00;stop-opacity:0;"
         offset="1"
         id="stop3403" />
    </linearGradient>
    <radialGradient
       inkscape:collect="always"
       xlink:href="#linearGradient3399"
       id="radialGradient3405"
       cx="68.898712"
       cy="68.990791"
       fx="68.898712"
       fy="68.990791"
       r="18.349909"
       gradientTransform="matrix(1,0,0,1.1698113,0,-11.715417)"
       gradientUnits="userSpaceOnUse" />
    <inkscape:perspective
       sodipodi:type="inkscape:persp3d"
       inkscape:vp_x="0 : 526.18109 : 1"
       inkscape:vp_y="0 : 1000 : 0"
       inkscape:vp_z="744.09448 : 526.18109 : 1"
       inkscape:persp3d-origin="372.04724 : 350.78739 : 1"
       id="perspective4058" />
  </defs>
  <sodipodi:namedview
     id="base"
     pagecolor="#ffffff"
     bordercolor="#666666"
     borderopacity="1.0"
     gridtolerance="10000"
     guidetolerance="10"
     objecttolerance="10"
     inkscape:pageopacity="0.0"
     inkscape:pageshadow="2"
     inkscape:zoom="1.4"
     inkscape:cx="133.52381"
     inkscape:cy="29.747681"
     inkscape:document-units="px"
     inkscape:current-layer="layer1"
     showgrid="false"
     inkscape:window-width="977"
     inkscape:window-height="715"
     inkscape:window-x="20"
     inkscape:window-y="20" />
  <metadata
     id="metadata4055">
    <rdf:RDF>
      <cc:Work
         rdf:about="">
        <dc:format>image/svg+xml</dc:format>
        <dc:type
           rdf:resource="http://purl.org/dc/dcmitype/StillImage" />
      </cc:Work>
    </rdf:RDF>
  </metadata>
  <g
     inkscape:label="Layer 1"
     inkscape:groupmode="layer"
     id="layer1"
     transform="translate(-194.90976,-627.61817)">
    <path
       sodipodi:type="arc"
       style="fill:url(#radialGradient3405);fill-opacity:1"
       id="path3397"
       sodipodi:cx="68.898712"
       sodipodi:cy="68.990791"
       sodipodi:rx="18.349909"
       sodipodi:ry="21.465931"
       d="M 87.248621,68.990791 A 18.349909,21.465931 0 1 1 50.548803,68.990791 A 18.349909,21.465931 0 1 1 87.248621,68.990791 z"
       transform="matrix(3.5471697,0,0,3.016129,15.60458,484.27706)" />
    <path
       sodipodi:type="arc"
       style="opacity:0.84359999;fill:url(#radialGradient3445);fill-opacity:1"
       id="path3411"
       sodipodi:cx="59.204418"
       sodipodi:cy="58.950275"
       sodipodi:rx="20.427254"
       sodipodi:ry="18.349909"
       d="M 79.631672,58.950275 A 20.427254,18.349909 0 1 1 38.777164,58.950275 A 20.427254,18.349909 0 1 1 79.631672,58.950275 z"
       transform="matrix(1.220339,0,0,1.3584906,184.98074,611.93256)" />
    <path
       sodipodi:type="star"
       style="fill:#000000"
       id="path2470"
       sodipodi:sides="93"
       sodipodi:cx="31.852671"
       sodipodi:cy="27.44383"
       sodipodi:r1="0.67295957"
       sodipodi:r2="67.295959"
       sodipodi:arg1="-0.17771309"
       sodipodi:arg2="-0.14393252"
       inkscape:flatsided="false"
       inkscape:rounded="0.09"
       inkscape:randomized="0.03"
       d="M 32.699045,26.060834 C 33.889958,31.893175 96.746293,10.62224 97.326225,16.581367 C 97.906156,22.540493 33.981512,20.646669 34.450128,26.58236 C 34.918744,32.518052 100.45181,18.144297 100.77364,24.178488 C 101.09546,30.212678 30.985352,19.892499 31.067948,25.959606 C 31.150543,32.026712 100.87086,21.295732 101.08274,27.369056 C 101.29462,33.442381 31.561464,23.254289 31.285047,29.238057 C 31.00863,35.221824 98.204245,23.605166 98.037511,29.591516 C 97.870776,35.577866 31.168354,19.59796 30.628451,25.508791 C 30.088547,31.419623 100.69358,29.969675 99.650219,35.94594 C 98.606858,41.922205 34.168828,22.233985 33.357627,28.20321 C 32.546426,34.172435 97.85025,35.421981 96.592295,41.307551 C 95.334339,47.193122 32.470251,21.337228 31.171168,27.131362 C 29.872086,32.925496 99.266458,37.562914 97.56483,43.373228 C 95.863202,49.183541 35.939568,23.626394 34.184043,29.382603 C 32.428517,35.138813 98.472906,43.607517 96.526351,49.333207 C 94.579796,55.058896 32.858637,23.557381 30.689709,29.142097 C 28.520781,34.726813 97.574481,47.966725 95.311375,53.599963 C 93.048268,59.233201 33.281573,24.260315 30.572895,29.694922 C 27.864216,35.129528 93.193605,50.763838 90.347943,55.97753 C 87.50228,61.191222 36.620382,22.936765 33.837964,28.246103 C 31.055545,33.555442 92.860482,56.187327 89.905553,61.369094 C 86.950624,66.550862 37.040774,24.287093 34.013757,29.498895 C 30.98674,34.710697 89.808833,60.428005 86.41509,65.325931 C 83.021346,70.223856 35.553604,24.484211 32.14722,29.500598 C 28.740836,34.516985 89.950219,63.192366 86.024537,67.780041 C 82.098855,72.367716 35.30813,22.955092 31.225166,27.369909 C 27.142201,31.784726 84.067232,69.569836 80.269694,74.110168 C 76.472156,78.6505 36.480312,22.676952 32.089423,26.859504 C 27.698534,31.042056 83.210586,73.271854 79.066452,77.652878 C 74.922318,82.033901 34.792664,23.261533 30.291798,27.147855 C 25.790933,31.034177 78.392153,75.673091 73.757377,79.604231 C 69.122601,83.535372 38.926443,23.691566 34.100857,27.192512 C 29.275271,30.693458 76.252433,79.660723 71.470408,83.192091 C 66.688383,86.723459 36.172552,25.128593 31.21474,28.384462 C 26.256928,31.640331 72.394148,81.293027 67.326004,84.399511 C 62.257861,87.505996 39.130521,23.237958 34.144993,26.460754 C 29.159465,29.683551 67.38841,83.625762 62.024667,86.360719 C 56.660923,89.095676 35.96303,24.957866 30.602176,27.44952 C 25.241321,29.941175 64.032517,85.750569 58.504374,88.033026 C 52.976231,90.315482 36.134527,24.964931 30.656108,27.502964 C 25.17769,30.040997 60.946017,89.030932 55.462271,91.370505 C 49.978524,93.710079 38.378521,24.640789 32.715119,26.554683 C 27.051718,28.468576 56.16249,90.694375 50.446391,92.506152 C 44.730291,94.31793 37.972851,25.220555 32.117618,26.7532 C 26.262385,28.285846 52.756139,92.332577 46.839929,93.48484 C 40.923718,94.637103 38.22234,26.230253 32.339165,27.300041 C 26.45599,28.369829 49.888612,91.406878 43.982591,92.272528 C 38.076569,93.138179 35.921593,26.077867 29.922105,26.667312 C 23.922616,27.256756 42.966659,94.702041 36.990335,95.088662 C 31.014012,95.475284 39.170725,28.050818 33.142195,28.150761 C 27.113665,28.250704 39.475735,96.369522 33.520371,96.338265 C 27.565007,96.307009 38.123628,26.442027 32.106478,26.426225 C 26.089328,26.410424 36.907996,94.244797 30.938305,93.887023 C 24.968613,93.529249 37.19111,29.803929 31.288263,29.258817 C 25.385416,28.713705 30.434788,96.315808 24.517997,95.459068 C 18.601205,94.602328 38.496211,27.449702 32.472391,26.70288 C 26.448572,25.956058 23.926904,93.364546 18.10888,92.122293 C 12.290856,90.88004 37.457945,27.904453 31.654393,26.399811 C 25.85084,24.895168 23.001128,95.353931 17.127001,94.097459 C 11.252874,92.840988 36.86681,28.198321 31.054514,26.616179 C 25.242218,25.034036 17.637362,91.467107 11.857344,89.797647 C 6.0773267,88.128187 36.317193,29.165122 30.672892,26.904955 C 25.028591,24.644787 13.849881,92.354293 8.2564283,90.419861 C 2.6629755,88.48543 38.43244,30.455232 32.95166,28.19231 C 27.470881,25.929387 9.7106096,92.351049 4.1210974,89.98546 C -1.4684148,87.619872 38.132801,32.903194 33.007334,29.967345 C 27.881867,27.031497 5.1981548,87.12547 0.17635723,84.014982 C -4.8454404,80.904494 36.945481,30.827398 31.681799,27.907474 C 26.418117,24.987551 -1.2056865,88.688507 -6.2922696,85.47227 C -11.378853,82.256033 37.157991,32.163544 32.397214,28.449705 C 27.636436,24.735866 -5.3422436,83.285669 -10.079464,79.495545 C -14.816685,75.705422 34.235317,33.32965 29.725378,29.299737 C 25.215438,25.269824 -8.9904526,82.323773 -13.658329,78.603835 C -18.326204,74.883896 33.977869,31.377813 29.71483,27.111099 C 25.451791,22.844385 -12.545059,79.812978 -16.862177,75.68453 C -21.179295,71.556082 36.146252,33.54072 31.955153,29.138069 C 27.764055,24.735418 -14.058588,76.081662 -17.747196,71.444391 C -21.435804,66.807121 36.854566,30.667833 33.036983,25.952574 C 29.219401,21.237316 -16.566443,73.002649 -20.093748,68.222018 C -23.621053,63.441387 35.58428,32.489215 32.332274,27.43007 C 29.080267,22.370926 -20.602435,69.627501 -23.835893,64.594046 C -27.069351,59.560591 33.323919,34.659905 30.251596,29.460178 C 27.179273,24.260451 -23.716758,66.007282 -26.725428,60.73714 C -29.734099,55.466997 35.693077,31.34471 33.077764,26.034235 C 30.462452,20.72376 -24.877581,60.429851 -27.436027,55.102461 C -29.994473,49.775071 32.782853,31.229095 30.305963,25.795353 C 27.829072,20.361611 -30.116095,57.460601 -32.404729,51.859075 C -34.693363,46.257548 32.65324,34.522443 30.409968,28.965729 C 28.166695,23.409014 -30.38283,55.277011 -32.408779,49.588557 C -34.434728,43.900103 32.770209,32.298895 30.94792,26.543931 C 29.125632,20.788967 -34.024406,47.91167 -35.310318,41.970047 C -36.59623,36.028423 33.780417,33.270943 32.363607,27.439985 C 30.946796,21.609026 -34.239527,44.300874 -35.293179,38.359282 C -36.346832,32.41769 32.98796,33.44295 32.21527,27.584385 C 31.44258,21.72582 -34.183281,39.438073 -35.049894,33.507499 C -35.916507,27.576924 31.347557,34.895142 31.122883,28.964761 C 30.89821,23.034379 -33.339361,34.63135 -33.823338,28.714289 C -34.307315,22.797229 30.515867,33.088618 30.682356,27.064532 C 30.848845,21.040446 -35.639259,31.156736 -35.387417,25.243732 C -35.135575,19.330729 30.618995,33.546869 30.902138,27.513453 C 31.18528,21.480037 -35.900837,26.437826 -35.594618,20.396384 C -35.288399,14.354942 31.118105,35.095587 31.777938,29.068757 C 32.437771,23.041928 -33.580877,24.266319 -32.886278,18.256011 C -32.191678,12.245702 30.447219,34.285915 31.705669,28.368451 C 32.96412,22.450986 -37.06379,17.575182 -35.707754,11.685076 C -34.351717,5.7949701 28.343109,33.45771 30.07361,27.713622 C 31.804111,21.969534 -34.667376,12.387564 -33.165531,6.5590641 C -31.663687,0.73056417 31.401232,34.390773 33.135292,28.612869 C 34.869352,22.834966 -31.542854,8.0114579 -29.334069,2.5136383 C -27.125285,-2.9841814 30.756329,31.200802 33.032943,25.748716 C 35.309556,20.29663 -30.269921,4.1162188 -27.741465,-1.3897845 C -25.213009,-6.8957878 29.056422,32.150866 31.764639,26.841586 C 34.472856,21.532306 -29.218643,-0.066189833 -26.147545,-5.304096 C -23.076446,-10.542002 29.95183,33.134146 32.974034,27.980718 C 35.996238,22.827289 -28.979815,-4.4794692 -25.689986,-9.4039576 C -22.400157,-14.328446 27.666353,32.206565 30.797311,27.182275 C 33.928269,22.157986 -27.062323,-7.8095969 -23.565796,-12.588099 C -20.069269,-17.366602 27.394472,32.046516 31.065059,27.311673 C 34.735646,22.57683 -22.134789,-10.192576 -18.14208,-14.732081 C -14.149372,-19.271587 25.802103,30.187221 29.986063,25.859123 C 34.170023,21.531026 -20.475244,-12.917179 -16.457559,-17.314085 C -12.439874,-21.71099 27.094448,30.911977 31.560708,26.94787 C 36.026969,22.983762 -17.785563,-19.76921 -13.28532,-23.667069 C -8.7850774,-27.564928 27.086752,28.976274 31.574814,24.940111 C 36.062877,20.903949 -12.732355,-21.807228 -7.9733579,-25.467062 C -3.2143606,-29.126895 25.794142,30.576538 30.422114,26.890537 C 35.050087,23.204536 -10.517074,-23.349905 -5.4635683,-26.509743 C -0.4100623,-29.66958 25.938509,31.321083 31.089207,28.327466 C 36.239905,25.33385 -6.2179578,-29.542443 -0.99447809,-32.340816 C 4.2290016,-35.13919 25.01573,27.587048 30.379863,24.928339 C 35.743996,22.269631 -5.5206089,-29.460901 -0.10951767,-31.979872 C 5.3015736,-34.498843 24.919985,30.780681 30.321045,28.115374 C 35.722105,25.450068 -1.1204126,-32.4094 4.4360632,-34.664796 C 9.9925389,-36.920193 26.762213,30.946205 32.299157,28.61515 C 37.8361,26.284095 5.185797,-33.734702 10.92167,-35.417341 C 16.657544,-37.099979 26.931425,28.207199 32.682604,26.453226 C 38.433783,24.699253 9.400922,-36.935826 15.188436,-38.595001 C 20.97595,-40.254175 27.335181,26.861176 33.062986,25.286665 C 38.790791,23.712153 11.716463,-39.394619 17.65216,-40.339217 C 23.587857,-41.283814 25.544895,26.557985 31.441952,25.470803 C 37.339009,24.38362 19.314322,-37.644598 25.247225,-38.141737 C 31.180129,-38.638875 26.24593,27.508869 32.25932,27.129425 C 38.272711,26.749981 19.966238,-39.913089 25.877352,-40.48201 C 31.788467,-41.05093 27.242292,28.383003 33.294842,27.958267 C 39.347392,27.53353 26.263614,-41.235135 32.279774,-40.984265 C 38.295934,-40.733394 24.073632,28.020725 30.075208,28.267738 C 36.076783,28.51475 28.956138,-40.001565 35.027756,-39.651703 C 41.099374,-39.301841 26.980147,25.839351 32.928914,26.337308 C 38.877682,26.835265 36.006358,-39.212226 41.987182,-38.09848 C 47.968007,-36.984734 27.915844,24.916421 33.747093,26.191782 C 39.578342,27.467143 38.466947,-39.371165 44.31075,-37.844404 C 50.154552,-36.317642 27.430976,26.786409 33.309281,28.257824 C 39.187586,29.72924 45.236276,-37.42894 50.923892,-35.784053 C 56.611508,-34.139167 26.015061,25.332122 31.688914,27.079889 C 37.362768,28.827655 48.42526,-39.06088 53.99163,-36.777748 C 59.558001,-34.494616 26.536763,24.527699 32.065949,26.890831 C 37.595136,29.253963 52.737426,-38.19383 58.188736,-35.646972 C 63.640046,-33.100115 26.803183,24.139822 32.228524,26.531 C 37.653866,28.922178 57.628711,-34.000014 62.99514,-31.13214 C 68.361569,-28.264267 28.371338,24.621734 33.554663,27.695362 C 38.737987,30.76899 61.920539,-34.260594 66.934158,-30.964445 C 71.947777,-27.668296 27.943655,24.972981 33.057614,28.121355 C 38.171572,31.269729 64.621546,-31.87907 69.479646,-28.339844 C 74.337746,-24.800618 26.988808,25.136532 31.910208,28.686685 C 36.831608,32.236838 69.367899,-29.863273 73.851101,-25.946272 C 78.334303,-22.029271 27.556899,24.857759 32.143509,28.601806 C 36.730119,32.345853 73.293607,-27.360492 77.713035,-23.354278 C 82.132463,-19.348063 26.156775,21.200869 30.335378,25.467439 C 34.51398,29.734009 76.715587,-24.074508 81.005695,-19.795711 C 85.295802,-15.516914 29.996767,23.745571 33.72779,28.341507 C 37.458812,32.937442 81.023236,-17.791446 85.000317,-13.343796 C 88.977398,-8.896147 26.848436,21.481426 30.395882,26.41598 C 33.943329,31.350534 82.760114,-17.314767 86.353964,-12.507057 C 89.947813,-7.699347 29.366938,20.302452 32.69537,25.354525 C 36.023803,30.406599 84.92317,-13.386721 88.016361,-8.2136162 C 91.109552,-3.040511 29.469853,20.776392 32.525783,25.841665 C 35.581713,30.906937 88.643885,-8.5559505 91.392293,-3.3257138 C 94.1407,1.9045229 30.815147,22.121848 33.51426,27.502927 C 36.213374,32.884007 91.133402,-6.3957385 93.657179,-0.92419159 C 96.180956,4.5473553 31.295437,20.703632 33.629344,26.195638 C 35.963251,31.687643 92.729209,-0.68881423 94.642645,5.0036453 C 96.55608,10.696105 31.647014,20.604043 33.310516,26.44286 C 34.974019,32.281677 94.247455,3.8144781 95.828429,9.6831232 C 97.409403,15.551768 29.137989,20.772366 30.513814,26.646142 C 31.889639,32.519918 98.06741,6.7427147 99.539108,12.598712 C 101.01081,18.454709 31.508131,20.228492 32.699045,26.060834 z"
       transform="matrix(0.7999852,0,0,0.8154831,232.13048,671.02958)" />
  </g>
</svg>
