<?xml version="1.0" encoding="UTF-8" standalone="no"?>
<!-- Created with Inkscape (http://www.inkscape.org/) -->
<svg
   xmlns:dc="http://purl.org/dc/elements/1.1/"
   xmlns:cc="http://creativecommons.org/ns#"
   xmlns:rdf="http://www.w3.org/1999/02/22-rdf-syntax-ns#"
   xmlns:svg="http://www.w3.org/2000/svg"
   xmlns="http://www.w3.org/2000/svg"
   xmlns:xlink="http://www.w3.org/1999/xlink"
   xmlns:sodipodi="http://sodipodi.sourceforge.net/DTD/sodipodi-0.dtd"
   xmlns:inkscape="http://www.inkscape.org/namespaces/inkscape"
   id="svg2457"
   sodipodi:version="0.32"
   inkscape:version="0.46"
   width="376"
   height="114"
   version="1.0"
   sodipodi:docname="logo.svg"
   inkscape:output_extension="org.inkscape.output.svg.inkscape"
   inkscape:export-filename="/opt/tomcat/webapps/envjs-site/images/logo.gif.png"
   inkscape:export-xdpi="30"
   inkscape:export-ydpi="30">
  <metadata
     id="metadata2462">
    <rdf:RDF>
      <cc:Work
         rdf:about="">
        <dc:format>image/svg+xml</dc:format>
        <dc:type
           rdf:resource="http://purl.org/dc/dcmitype/StillImage" />
      </cc:Work>
    </rdf:RDF>
  </metadata>
  <defs
     id="defs2460">
    <linearGradient
       inkscape:collect="always"
       id="linearGradient3418">
      <stop
         style="stop-color:#1f00e0;stop-opacity:1;"
         offset="0"
         id="stop3420" />
      <stop
         style="stop-color:#1f00e0;stop-opacity:0;"
         offset="1"
         id="stop3422" />
    </linearGradient>
    <inkscape:path-effect
       effect="gears"
       id="path-effect2542"
       teeth="17"
       phi="10" />
    <inkscape:path-effect
       effect="gears"
       id="path-effect2540"
       teeth="12"
       phi="10" />
    <linearGradient
       id="linearGradient3439">
      <stop
         style="stop-color:#803300;stop-opacity:1;"
         offset="0"
         id="stop3441" />
      <stop
         id="stop3447"
         offset="1"
         style="stop-color:#803300;stop-opacity:0.49803922;" />
      <stop
         style="stop-color:#803300;stop-opacity:0;"
         offset="1"
         id="stop3443" />
    </linearGradient>
    <linearGradient
       id="linearGradient3429">
      <stop
         style="stop-color:#eb2200;stop-opacity:1;"
         offset="0"
         id="stop3431" />
      <stop
         id="stop3437"
         offset="0.75"
         style="stop-color:#eb1a00;stop-opacity:0.49803922;" />
      <stop
         style="stop-color:#eb2200;stop-opacity:0;"
         offset="1"
         id="stop3433" />
    </linearGradient>
    <linearGradient
       id="linearGradient3399">
      <stop
         style="stop-color:#0000ff;stop-opacity:1;"
         offset="0"
         id="stop3401" />
      <stop
         id="stop3409"
         offset="0.75"
         style="stop-color:#0000ff;stop-opacity:0.49803922;" />
      <stop
         style="stop-color:#0000ff;stop-opacity:0;"
         offset="1"
         id="stop3403" />
    </linearGradient>
    <inkscape:perspective
       sodipodi:type="inkscape:persp3d"
       inkscape:vp_x="0 : 526.18109 : 1"
       inkscape:vp_y="6.123234e-14 : 1000 : 0"
       inkscape:vp_z="744.09448 : 526.18109 : 1"
       inkscape:persp3d-origin="372.04724 : 350.78739 : 1"
       id="perspective2464" />
    <filter
       inkscape:collect="always"
       id="filter3414">
      <feGaussianBlur
         inkscape:collect="always"
         stdDeviation="1.0285363"
         id="feGaussianBlur3416" />
    </filter>
    <radialGradient
       inkscape:collect="always"
       xlink:href="#linearGradient3418"
       id="radialGradient3426"
       cx="163.35101"
       cy="37.648796"
       fx="163.35101"
       fy="37.648796"
       r="39.55378"
       gradientTransform="matrix(1,0,0,0.2818875,0,27.036074)"
       gradientUnits="userSpaceOnUse" />
    <radialGradient
       inkscape:collect="always"
       xlink:href="#linearGradient3418"
       id="radialGradient3428"
       gradientUnits="userSpaceOnUse"
       gradientTransform="matrix(1,0,0,0.2818875,0,27.036074)"
       cx="163.35101"
       cy="37.648796"
       fx="163.35101"
       fy="37.648796"
       r="39.55378" />
  </defs>
  <sodipodi:namedview
     inkscape:window-height="752"
     inkscape:window-width="1280"
     inkscape:pageshadow="2"
     inkscape:pageopacity="0.0"
     guidetolerance="10.0"
     gridtolerance="10.0"
     objecttolerance="10.0"
     borderopacity="1.0"
     bordercolor="#666666"
     pagecolor="#ffffff"
     id="base"
     showgrid="false"
     inkscape:zoom="1.4441489"
     inkscape:cx="45.47227"
     inkscape:cy="84.697974"
     inkscape:window-x="0"
     inkscape:window-y="0"
     inkscape:current-layer="svg2457" />
  <flowRoot
     xml:space="preserve"
     id="flowRoot3485"
     style="font-size:32.00970459px;font-style:normal;font-variant:normal;font-weight:200;font-stretch:normal;text-align:start;line-height:125%;writing-mode:lr-tb;text-anchor:start;fill:#1a1a1a;fill-opacity:1;stroke:none;stroke-width:1px;stroke-linecap:butt;stroke-linejoin:miter;stroke-opacity:1;font-family:Helvetica Neue;-inkscape-font-specification:Helvetica Neue Ultra-Light"
     transform="matrix(1.7146018,0,0,2.3314889,81.59922,-35.711265)"><flowRegion
       id="flowRegion3487"><rect
         id="rect3489"
         width="199.42542"
         height="74.092079"
         x="122.56354"
         y="19.826887"
         style="font-size:32.00970459px;font-style:normal;font-variant:normal;font-weight:200;font-stretch:normal;text-align:start;line-height:125%;writing-mode:lr-tb;text-anchor:start;fill:#1a1a1a;font-family:Helvetica Neue;-inkscape-font-specification:Helvetica Neue Ultra-Light" /></flowRegion><flowPara
       id="flowPara3493">js</flowPara></flowRoot>  <path
     sodipodi:type="spiral"
     style="fill:none;fill-rule:evenodd;stroke:#ed0000;stroke-width:1.35374608000000007;stroke-linecap:butt;stroke-linejoin:miter;stroke-opacity:1;stroke-miterlimit:4;stroke-dasharray:none;filter:url(#filter3414);opacity:0.78629031999999999"
     id="path2538"
     sodipodi:cx="-89.325966"
     sodipodi:cy="21.904234"
     sodipodi:expansion="3.54"
     sodipodi:revolution="3.4000001"
     sodipodi:radius="90.87986"
     sodipodi:argument="-21.037945"
     sodipodi:t0="0.49900001"
     d="M -88.7815,34.6078 C -88.7815,34.6078 -88.2453,35.6446 -88.3338,37.8272 C -89.1095,38.2039 -89.904,38.5417 -90.7135,38.8389 C -92.3465,37.388 -92.721,36.2824 -92.721,36.2824 L -93.4382,34.0262 C -94.6119,34.3992 -95.8195,34.6657 -97.0412,34.8211 L -96.7424,37.1696 C -96.7424,37.1696 -96.617,38.3302 -97.4879,40.3335 C -98.3473,40.4045 -99.2102,40.4324 -100.072,40.4171 C -101.071,38.4743 -101.021,37.3081 -101.021,37.3081 L -100.875,34.9451 C -102.104,34.869 -103.326,34.6812 -104.521,34.3848 L -105.091,36.6827 C -105.091,36.6827 -105.393,37.8102 -106.929,39.3636 C -107.756,39.1194 -108.571,38.8337 -109.369,38.5079 C -109.599,36.3356 -109.131,35.2662 -109.131,35.2662 L -108.141,33.1157 C -109.259,32.6007 -110.331,31.984 -111.339,31.2758 L -112.7,33.2127 C -112.7,33.2127 -113.389,34.1549 -115.383,35.0486 C -116.066,34.5221 -116.722,33.9614 -117.349,33.3692 C -116.778,31.2608 -115.955,30.4327 -115.955,30.4327 L -114.255,28.785 C -115.112,27.9006 -115.889,26.9384 -116.573,25.9141 L -118.542,27.2284 C -118.542,27.2284 -119.525,27.8579 -121.706,27.9713 C -122.153,27.2336 -122.563,26.4736 -122.933,25.695 C -121.639,23.9351 -120.573,23.4602 -120.573,23.4602 L -118.393,22.5379 C -118.872,21.4036 -119.249,20.2258 -119.517,19.0236 L -121.828,19.5378 C -121.828,19.5378 -122.972,19.7698 -125.047,19.0874 C -125.197,18.2383 -125.304,17.3816 -125.368,16.5217 C -123.526,15.3481 -122.36,15.2904 -122.36,15.2904 L -119.994,15.218 C -120.031,13.9871 -119.957,12.7527 -119.772,11.535 L -122.113,11.1797 C -122.113,11.1797 -123.264,10.9827 -124.952,9.59687 C -124.785,8.75086 -124.576,7.91321 -124.325,7.08813 C -122.183,6.65933 -121.075,7.0267 -121.075,7.0267 L -118.843,7.81409 C -118.433,6.65263 -117.918,5.52841 -117.306,4.45979 L -119.36,3.28291 C -119.36,3.28291 -120.362,2.68361 -121.435,0.781369 C -120.974,0.0527746 -120.476,-0.652699 -119.945,-1.33152 C -117.793,-0.957619 -116.892,-0.2148 -116.892,-0.2148 L -115.095,1.32596 C -114.293,0.390899 -113.407,-0.471327 -112.45,-1.24663 L -113.94,-3.08611 C -113.94,-3.08611 -114.658,-4.0068 -114.972,-6.1685 C -114.279,-6.68128 -113.56,-7.1593 -112.818,-7.60018 C -110.947,-6.47408 -110.375,-5.45613 -110.375,-5.45613 L -109.256,-3.37009 C -108.171,-3.95247 -107.033,-4.43625 -105.86,-4.81352 L -106.585,-7.06717 C -106.585,-7.06717 -106.922,-8.18492 -106.434,-10.3141 C -105.602,-10.5418 -104.759,-10.7278 -103.909,-10.8712 C -102.57,-9.14501 -102.405,-7.98942 -102.405,-7.98942 L -102.115,-5.63983 C -100.893,-5.79087 -99.6567,-5.83087 -98.4272,-5.75916 L -98.2894,-8.12261 C -98.2894,-8.12261 -98.1994,-9.28645 -96.9753,-11.0956 C -96.1175,-11.0075 -95.2641,-10.8764 -94.4194,-10.7029 C -93.7948,-8.6097 -94.0583,-7.47254 -94.0583,-7.47254 L -94.6364,-5.17672 C -93.4421,-4.87602 -92.2751,-4.46683 -91.1546,-3.95583 L -90.1722,-6.10989 C -90.1722,-6.10989 -89.6679,-7.16264 -87.8729,-8.40739 C -87.1048,-8.01535 -86.3565,-7.58481 -85.6315,-7.11793 C -85.8052,-4.94045 -86.4618,-3.97528 -86.4618,-3.97528 L -87.8301,-2.0433 C -86.8251,-1.33148 -85.8847,-0.528371 -85.0244,0.352917 L -83.3303,-1.30083 C -83.3303,-1.30083 -82.4798,-2.10031 -80.3563,-2.61257 C -79.7817,-1.96955 -79.2394,-1.29773 -78.732,-0.60048 C -79.6806,1.36721 -80.6415,2.03001 -80.6415,2.03001 L -82.6153,3.33724 C -81.9353,4.36404 -81.3486,5.45261 -80.8648,6.58516 L -78.6876,5.65507 C -78.6876,5.65507 -77.6057,5.21684 -75.4406,5.50627 C -75.1371,6.31342 -74.8741,7.13578 -74.6528,7.96923 C -76.2482,9.46137 -77.3836,9.73231 -77.3836,9.73231 L -79.6964,10.2382 C -79.4332,11.4413 -79.2794,12.6683 -79.2373,13.8992 L -76.8712,13.8184 C -76.8712,13.8184 -75.7041,13.8006 -73.7897,14.8526 C -73.7983,15.7149 -73.8501,16.5767 -73.9449,17.4338 C -75.9715,18.2489 -77.1281,18.0914 -77.1281,18.0914 L -79.4675,17.7276 C -79.6567,18.9446 -79.9565,20.1443 -80.3619,21.3072 L -78.1264,22.0866 C -78.1264,22.0866 -77.0316,22.4916 -75.6266,24.1642 C -75.9461,24.9651 -76.3057,25.75 -76.7037,26.515 C -78.8879,26.5429 -79.9096,25.9782 -79.9096,25.9782 L -81.9596,24.794 C -82.5756,25.8604 -83.2885,26.8708 -84.0867,27.8088 L -82.2837,29.3431 C -82.2837,29.3431 -81.4091,30.1162 -80.7031,32.1834 C -81.2904,32.8148 -81.9093,33.4168 -82.5568,33.9864 C -84.6036,33.2234 -85.3522,32.3278 -85.3522,32.3278 L -86.836,30.4829 C -87.7957,31.2548 -88.8255,31.9395 -89.9085,32.5257 L -88.7815,34.6078 M -49.2542,34.4284 C -49.2542,34.4284 -48.1012,34.1964 -46.0971,35.0082 C -45.964,35.8158 -45.8797,36.6315 -45.8446,37.4492 C -47.6401,38.654 -48.8162,38.6629 -48.8162,38.6629 L -51.2658,38.6151 C -51.289,39.8014 -51.4541,40.9849 -51.7564,42.1322 L -49.3872,42.7565 C -49.3872,42.7565 -48.2584,43.0869 -46.8611,44.737 C -47.1186,45.514 -47.423,46.2754 -47.7719,47.0158 C -49.9216,47.2482 -50.9672,46.7095 -50.9672,46.7095 L -53.1139,45.5287 C -53.6858,46.5684 -54.3819,47.5396 -55.1828,48.4151 L -53.3751,50.0688 C -53.3751,50.0688 -52.5292,50.886 -52.0588,52.9964 C -52.6479,53.5647 -53.2712,54.0975 -53.9243,54.5909 C -55.9358,53.7976 -56.6112,52.8348 -56.6112,52.8348 L -57.9633,50.7916 C -58.9528,51.4464 -60.0206,51.9829 -61.1366,52.3859 L -60.3045,54.6903 C -60.3045,54.6903 -59.9352,55.8069 -60.4995,57.8943 C -61.2852,58.1237 -62.0847,58.3058 -62.8923,58.4392 C -64.3047,56.802 -64.4553,55.6355 -64.4553,55.6355 L -64.7031,53.198 C -65.8835,53.318 -67.0783,53.2968 -68.2537,53.135 L -68.5878,55.5622 C -68.5878,55.5622 -68.7798,56.7225 -70.2494,58.3085 C -71.0518,58.1465 -71.8444,57.9362 -72.6214,57.679 C -73.1112,55.573 -72.7025,54.4701 -72.7025,54.4701 L -71.7891,52.1967 C -72.8901,51.7543 -73.9381,51.1803 -74.9038,50.4908 L -76.3276,52.4847 C -76.3276,52.4847 -77.0368,53.4229 -79.0751,54.1443 C -79.7103,53.628 -80.3143,53.0734 -80.8829,52.4845 C -80.3378,50.3921 -79.4635,49.6056 -79.4635,49.6056 L -77.5981,48.017 C -78.3675,47.1137 -79.0287,46.1184 -79.5633,45.0591 L -81.7506,46.1629 C -81.7506,46.1629 -82.8146,46.6641 -84.9547,46.3555 C -85.2772,45.6032 -85.5543,44.8314 -85.7841,44.0458 C -84.3291,42.4464 -83.1893,42.1562 -83.1893,42.1562 L -80.7994,41.6165 C -81.0608,40.4591 -81.1837,39.2705 -81.1648,38.0841 L -83.6145,38.045 C -83.6145,38.045 -84.7896,37.9943 -86.5412,36.7266 C -86.4771,35.9105 -86.3638,35.0984 -86.2021,34.296 C -84.1705,33.5559 -83.0265,33.8287 -83.0265,33.8287 L -80.6595,34.4614 C -80.3531,33.3151 -79.9096,32.2055 -79.3415,31.1638 L -81.4924,29.9908 C -81.4924,29.9908 -82.5093,29.3998 -83.4711,27.4633 C -83.0352,26.7705 -82.5574,26.104 -82.0414,25.4686 C -79.8985,25.7575 -79.0123,26.5307 -79.0123,26.5307 L -77.2105,28.1909 C -76.4065,27.3184 -75.4981,26.542 -74.511,25.8836 L -75.8704,23.8453 C -75.8704,23.8453 -76.4962,22.8494 -76.4479,20.6878 C -75.7399,20.2769 -75.0071,19.9088 -74.2549,19.586 C -72.4918,20.8376 -72.0664,21.9341 -72.0664,21.9341 L -71.2425,24.2415 C -70.1251,23.8425 -68.96,23.5772 -67.7799,23.453 L -68.0364,21.0164 C -68.0364,21.0164 -68.1277,19.8438 -67.0803,17.9522 C -66.2625,17.9175 -65.4426,17.932 -64.6266,17.9958 C -63.6471,19.9234 -63.7799,21.092 -63.7799,21.092 L -64.1227,23.518 C -62.9479,23.684 -61.7929,23.9905 -60.6903,24.4289 L -59.7851,22.1522 C -59.7851,22.1522 -59.321,21.0715 -57.5145,19.8833 C -56.7743,20.2326 -56.055,20.6265 -55.3621,21.0622 C -55.3906,23.2242 -56.0513,24.1972 -56.0513,24.1972 L -57.4822,26.186 C -56.5191,26.879 -55.6389,27.6871 -54.8663,28.5877 L -53.0067,26.9925 C -53.0067,26.9925 -52.0936,26.2513 -49.9418,26.0387 C -49.4487,26.692 -48.9949,27.375 -48.5838,28.0828 C -49.6138,29.984 -50.651,30.5384 -50.651,30.5384 L -52.8423,31.6344 C -52.3115,32.6956 -51.9077,33.8203 -51.6421,34.9767 L -49.2542,34.4284 M -122.583,25.4294 C -122.583,25.4294 -122.955,24.311 -122.657,22.0914 C -121.793,21.8207 -120.919,21.5844 -120.036,21.3835 C -118.661,23.1516 -118.42,24.3052 -118.42,24.3052 L -117.988,26.5069 C -116.746,26.2633 -115.488,26.1025 -114.225,26.0258 L -114.361,23.7864 C -114.361,23.7864 -114.418,22.6091 -113.532,20.5521 C -112.627,20.5245 -111.721,20.5331 -110.817,20.5778 C -109.97,22.6511 -110.049,23.8271 -110.049,23.8271 L -110.227,26.0636 C -108.966,26.1642 -107.711,26.3487 -106.474,26.6157 L -106.001,24.4226 C -106.001,24.4226 -105.737,23.2737 -104.33,21.5319 C -103.451,21.7495 -102.581,22.0022 -101.722,22.2893 C -101.466,24.514 -101.859,25.6252 -101.859,25.6252 L -102.634,27.7307 C -101.447,28.1678 -100.288,28.6841 -99.1692,29.2749 L -98.1218,27.2908 C -98.1218,27.2908 -97.5584,26.2556 -95.7331,24.9581 C -94.9455,25.4048 -94.1757,25.8829 -93.4263,26.391 C -93.7803,28.6022 -94.4586,29.5662 -94.4586,29.5662 L -95.773,31.3844 C -94.7474,32.1258 -93.7712,32.9355 -92.8529,33.8063 L -91.3091,32.1784 C -91.3091,32.1784 -90.4872,31.3335 -88.3796,30.5767 C -87.7416,31.2192 -87.1294,31.8873 -86.5448,32.5788 C -87.4824,34.6125 -88.3956,35.3577 -88.3956,35.3577 L -90.1518,36.7539 C -89.3642,37.7445 -88.6426,38.7875 -87.9934,39.8738 L -86.0676,38.7227 C -86.0676,38.7227 -85.0482,38.131 -82.8146,37.9708 C -82.3737,38.7616 -81.9644,39.5701 -81.5881,40.3936 C -83.0395,42.099 -84.1199,42.5702 -84.1199,42.5702 L -86.1877,43.4408 C -85.6966,44.6071 -85.2831,45.8062 -84.9511,47.0273 L -82.7861,46.4386 C -82.7861,46.4386 -81.6449,46.1437 -79.4509,46.5922 C -79.2397,47.4726 -79.0637,48.3615 -78.9235,49.2561 C -80.7812,50.5066 -81.9487,50.6688 -81.9487,50.6688 L -84.1747,50.9493 C -84.0164,52.2048 -83.9419,53.4709 -83.9515,54.7364 L -81.708,54.7536 C -81.708,54.7536 -80.5296,54.7776 -78.5379,55.8013 C -78.5721,56.7061 -78.6425,57.6095 -78.7488,58.5087 C -80.875,59.2117 -82.043,59.0529 -82.043,59.0529 L -84.2621,58.7224 C -84.4485,59.9741 -84.7182,61.2134 -85.069,62.4293 L -82.9133,63.0511 C -82.9133,63.0511 -81.785,63.3922 -80.1434,64.9153 C -80.4204,65.7773 -80.732,66.6282 -81.0769,67.4654 C -83.314,67.5686 -84.3957,67.1006 -84.3957,67.1006 L -86.4434,66.1837 C -86.9606,67.3387 -87.5547,68.4592 -88.2205,69.5354 L -86.3125,70.7158 C -86.3125,70.7158 -85.3181,71.3486 -84.1483,73.2581 C -84.6476,74.0135 -85.1772,74.7488 -85.7352,75.4618 C -87.9171,74.9577 -88.8325,74.2152 -88.8325,74.2152 L -90.5569,72.7798 C -91.3665,73.7524 -92.2409,74.6711 -93.1724,75.5278 L -91.6536,77.1791 C -91.6536,77.1791 -90.8668,78.0568 -90.2555,80.2111 C -90.9401,80.8037 -91.6484,81.3689 -92.3782,81.9049 C -94.3431,80.8308 -95.0243,79.8688 -95.0243,79.8688 L -96.2974,78.0215 C -97.3394,78.7396 -98.4293,79.3883 -99.5573,79.9619 L -98.5404,81.9618 C -98.5404,81.9618 -98.0196,83.0191 -98.0122,85.2585 C -98.8313,85.6444 -99.6658,85.9976 -100.513,86.3168 C -102.115,84.7524 -102.512,83.6424 -102.512,83.6424 L -103.239,81.52 C -104.436,81.9304 -105.661,82.261 -106.902,82.509 L -106.462,84.7091 C -106.462,84.7091 -106.246,85.8677 -106.843,88.0261 C -107.736,88.1767 -108.635,88.2916 -109.537,88.3704 C -110.658,86.4317 -110.74,85.2559 -110.74,85.2559 L -110.868,83.0159 C -112.131,83.0881 -113.399,83.0761 -114.661,82.9801 L -114.831,85.2172 C -114.831,85.2172 -114.936,86.3912 -116.093,88.3084 C -116.993,88.2126 -117.89,88.0807 -118.78,87.9132 C -119.336,85.744 -119.098,84.5896 -119.098,84.5896 L -118.617,82.3983 C -119.853,82.1269 -121.071,81.7732 -122.26,81.3403 L -123.027,83.4485 C -123.027,83.4485 -123.445,84.5508 -125.076,86.0847 C -125.917,85.7495 -126.745,85.3806 -127.557,84.9793 C -127.507,82.7405 -126.966,81.6932 -126.966,81.6932 L -125.912,79.7129 C -127.029,79.118 -128.106,78.4488 -129.134,77.7112 L -130.442,79.5341 C -130.442,79.5341 -131.141,80.483 -133.126,81.5198 C -133.846,80.9701 -134.543,80.3916 -135.216,79.7862 C -134.565,77.6438 -133.761,76.7812 -133.761,76.7812 L -132.212,75.1588 C -133.127,74.2847 -133.984,73.3497 -134.775,72.3619 L -136.526,73.7644 C -136.526,73.7644 -137.455,74.4895 -139.646,74.9523 C -140.191,74.2289 -140.706,73.4837 -141.191,72.7191 C -139.986,70.832 -138.979,70.2181 -138.979,70.2181 L -137.049,69.074 C -137.695,67.9854 -138.268,66.8538 -138.763,65.6893 L -140.827,66.5673 C -140.827,66.5673 -141.918,67.0148 -144.153,66.8693 C -144.482,66.0258 -144.777,65.1691 -145.038,64.302 C -143.368,62.8102 -142.233,62.4905 -142.233,62.4905 L -140.066,61.9095 C -140.394,60.6872 -140.64,59.4431 -140.803,58.1881 L -143.028,58.4765 C -143.028,58.4765 -144.198,58.6132 -146.311,57.8702 C -146.4,56.9692 -146.454,56.0646 -146.471,55.1593 C -144.46,54.1734 -143.281,54.1717 -143.281,54.1717 L -141.038,54.1969 C -141.024,52.9315 -140.925,51.667 -140.743,50.4147 L -142.964,50.0922 C -142.964,50.0922 -144.128,49.9079 -145.961,48.6225 C -145.804,47.7308 -145.612,46.8454 -145.384,45.9691 C -143.182,45.5622 -142.046,45.8785 -142.046,45.8785 L -139.893,46.5081 C -139.538,45.2934 -139.102,44.1024 -138.589,42.9456 L -140.64,42.036 C -140.64,42.036 -141.711,41.5445 -143.13,39.812 C -142.738,38.9958 -142.314,38.1952 -141.858,37.4128 C -139.628,37.6152 -138.62,38.2261 -138.62,38.2261 L -136.716,39.4133 C -136.046,38.3395 -135.305,37.3103 -134.499,36.3348 L -136.228,34.9056 C -136.228,34.9056 -137.127,34.1433 -138.026,32.0922 C -137.429,31.412 -136.804,30.7556 -136.154,30.1252 C -134.061,30.9217 -133.255,31.782 -133.255,31.782 L -131.743,33.4388 C -130.808,32.5855 -129.817,31.7944 -128.777,31.0725 L -130.057,29.2297 C -130.057,29.2297 -130.717,28.2532 -131.029,26.0356 C -130.27,25.5418 -129.492,25.0783 -128.696,24.6466 C -126.895,25.9783 -126.351,27.0241 -126.351,27.0241 L -125.342,29.0276 C -124.212,28.458 -123.044,27.9638 -121.848,27.5491 L -122.583,25.4294 M -128.139,-44.1204 C -128.139,-44.1204 -127.927,-45.2911 -126.625,-47.1523 C -125.721,-46.9747 -124.823,-46.7642 -123.935,-46.5215 C -123.595,-44.2752 -123.926,-43.1323 -123.926,-43.1323 L -124.555,-41.0434 C -123.335,-40.6757 -122.135,-40.2363 -120.966,-39.7284 L -120.097,-41.7293 C -120.097,-41.7293 -119.611,-42.8154 -117.901,-44.3107 C -117.066,-43.9219 -116.245,-43.5028 -115.44,-43.0544 C -115.648,-40.7922 -116.243,-39.7617 -116.243,-39.7617 L -117.353,-37.8841 C -116.256,-37.2349 -115.197,-36.5213 -114.183,-35.7483 L -112.86,-37.4831 C -112.86,-37.4831 -112.129,-38.4213 -110.11,-39.4639 C -109.392,-38.8865 -108.696,-38.2831 -108.022,-37.6552 C -108.765,-35.5085 -109.589,-34.6502 -109.589,-34.6502 L -111.117,-33.093 C -110.207,-32.2001 -109.349,-31.2538 -108.55,-30.2606 L -106.85,-31.6284 C -106.85,-31.6284 -105.915,-32.3643 -103.706,-32.8935 C -103.147,-32.1612 -102.615,-31.4085 -102.111,-30.6376 C -103.347,-28.7311 -104.352,-28.095 -104.352,-28.095 L -106.208,-26.9487 C -105.538,-25.864 -104.932,-24.7399 -104.394,-23.5843 L -102.416,-24.5056 C -102.416,-24.5056 -101.332,-24.9963 -99.0605,-24.9815 C -98.6932,-24.1367 -98.3566,-23.2786 -98.0516,-22.4093 C -99.7075,-20.854 -100.836,-20.477 -100.836,-20.477 L -102.913,-19.8082 C -102.522,-18.5946 -102.202,-17.3582 -101.956,-16.1073 L -99.8153,-16.5286 C -99.8153,-16.5286 -98.6455,-16.7456 -96.4433,-16.1876 C -96.2889,-15.2795 -96.1675,-14.3657 -96.0793,-13.4487 C -98.0593,-12.3349 -99.2452,-12.2388 -99.2452,-12.2388 L -101.421,-12.0864 C -101.332,-10.8146 -101.318,-9.53763 -101.378,-8.26416 L -99.1991,-8.16095 C -99.1991,-8.16095 -98.0114,-8.09175 -96.0067,-7.0229 C -96.0741,-6.10419 -96.1749,-5.18792 -96.3087,-4.27651 C -98.4978,-3.66886 -99.6722,-3.85942 -99.6722,-3.85942 L -101.822,-4.23226 C -102.04,-2.97611 -102.331,-1.73275 -102.694,-0.510714 L -100.603,0.111001 C -100.603,0.111001 -99.4667,0.462446 -97.7761,1.97997 C -98.0614,2.85586 -98.3785,3.72139 -98.7266,4.57428 C -100.997,4.64041 -102.092,4.17433 -102.092,4.17433 L -104.09,3.29791 C -104.602,4.46541 -105.183,5.60286 -105.828,6.70244 L -103.946,7.80653 C -103.946,7.80653 -102.927,8.41979 -101.649,10.2978 C -102.135,11.08 -102.65,11.8445 -103.192,12.5893 C -105.413,12.11 -106.364,11.3955 -106.364,11.3955 L -108.094,10.0664 C -108.871,11.0775 -109.707,12.0429 -110.597,12.9561 L -109.034,14.4784 C -109.034,14.4784 -108.191,15.3178 -107.399,17.4472 C -108.059,18.0902 -108.742,18.7092 -109.446,19.3026 C -111.488,18.3059 -112.24,17.3845 -112.24,17.3845 L -113.602,15.68 C -114.598,16.4758 -115.641,17.2131 -116.723,17.8868 L -115.57,19.7389 C -115.57,19.7389 -114.953,20.7557 -114.693,23.0127 C -115.488,23.4791 -116.299,23.9167 -117.125,24.3242 C -118.869,22.8679 -119.379,21.7931 -119.379,21.7931 L -120.293,19.8123 C -121.451,20.3466 -122.64,20.8129 -123.852,21.2081 L -123.176,23.2822 C -123.176,23.2822 -122.819,24.4174 -123.108,26.6707 C -123.991,26.9335 -124.883,27.1642 -125.783,27.3622 C -127.127,25.5309 -127.365,24.3653 -127.365,24.3653 L -127.779,22.2232 C -129.031,22.4649 -130.297,22.6332 -131.568,22.7268 L -131.408,24.9025 C -131.408,24.9025 -131.334,26.09 -132.153,28.2088 C -133.073,28.2527 -133.995,28.2631 -134.916,28.2401 C -135.783,26.1403 -135.735,24.9514 -135.735,24.9514 L -135.624,22.7726 C -136.897,22.7078 -138.167,22.5682 -139.424,22.3548 L -139.789,24.5056 C -139.789,24.5056 -140.001,25.6764 -141.303,27.5376 C -142.207,27.3599 -143.105,27.1495 -143.993,26.9067 C -144.333,24.6604 -144.002,23.5175 -144.002,23.5175 L -143.373,21.4286 C -144.594,21.0609 -145.793,20.6216 -146.962,20.1136 L -147.831,22.1146 C -147.831,22.1146 -148.317,23.2006 -150.027,24.696 C -150.863,24.3072 -151.684,23.888 -152.488,23.4397 C -152.28,21.1774 -151.686,20.1469 -151.686,20.1469 L -150.575,18.2693 C -151.672,17.6201 -152.731,16.9066 -153.745,16.1335 L -155.068,17.8683 C -155.068,17.8683 -155.799,18.8065 -157.818,19.8491 C -158.536,19.2718 -159.233,18.6684 -159.907,18.0405 C -159.163,15.8937 -158.339,15.0355 -158.339,15.0355 L -156.811,13.4783 C -157.721,12.5854 -158.579,11.6391 -159.378,10.6459 L -161.078,12.0137 C -161.078,12.0137 -162.013,12.7495 -164.222,13.2788 C -164.781,12.5464 -165.313,11.7938 -165.817,11.0228 C -164.582,9.11639 -163.576,8.48025 -163.576,8.48025 L -161.72,7.33393 C -162.39,6.2492 -162.996,5.12517 -163.534,3.96953 L -165.512,4.89087 C -165.512,4.89087 -166.596,5.38156 -168.868,5.36676 C -169.235,4.52195 -169.571,3.66381 -169.877,2.79459 C -168.221,1.23925 -167.092,0.862214 -167.092,0.862214 L -165.016,0.193411 C -165.406,-1.02011 -165.726,-2.25656 -165.972,-3.50747 L -168.113,-3.08616 C -168.113,-3.08616 -169.283,-2.86911 -171.485,-3.42715 C -171.639,-4.3353 -171.761,-5.24905 -171.849,-6.16601 C -169.869,-7.27988 -168.683,-7.3759 -168.683,-7.3759 L -166.507,-7.52831 C -166.596,-8.8001 -166.61,-10.0771 -166.55,-11.3506 L -168.729,-11.4538 C -168.729,-11.4538 -169.917,-11.523 -171.921,-12.5918 C -171.854,-13.5106 -171.753,-14.4268 -171.619,-15.3382 C -169.43,-15.9459 -168.256,-15.7553 -168.256,-15.7553 L -166.106,-15.3825 C -165.889,-16.6386 -165.597,-17.882 -165.234,-19.104 L -167.325,-19.7258 C -167.325,-19.7258 -168.461,-20.0772 -170.152,-21.5947 C -169.867,-22.4706 -169.55,-23.3361 -169.202,-24.189 C -166.931,-24.2552 -165.836,-23.7891 -165.836,-23.7891 L -163.838,-22.9127 C -163.326,-24.0802 -162.745,-25.2176 -162.1,-26.3172 L -163.982,-27.4213 C -163.982,-27.4213 -165.001,-28.0345 -166.28,-29.9126 C -165.793,-30.6947 -165.278,-31.4592 -164.736,-32.204 C -162.515,-31.7248 -161.564,-31.0103 -161.564,-31.0103 L -159.834,-29.6812 C -159.057,-30.6922 -158.221,-31.6576 -157.332,-32.5709 L -158.894,-34.0932 C -158.894,-34.0932 -159.737,-34.9326 -160.529,-37.062 C -159.869,-37.7049 -159.186,-38.324 -158.482,-38.9174 C -156.44,-37.9206 -155.688,-36.9992 -155.688,-36.9992 L -154.326,-35.2947 C -153.33,-36.0905 -152.287,-36.8278 -151.205,-37.5016 L -152.358,-39.3536 C -152.358,-39.3536 -152.976,-40.3705 -153.235,-42.6274 C -152.44,-43.0938 -151.629,-43.5314 -150.803,-43.939 C -149.059,-42.4826 -148.549,-41.4079 -148.549,-41.4079 L -147.635,-39.4271 C -146.477,-39.9613 -145.288,-40.4276 -144.076,-40.8228 L -144.752,-42.897 C -144.752,-42.897 -145.109,-44.0321 -144.82,-46.2855 C -143.937,-46.5483 -143.045,-46.779 -142.145,-46.977 C -140.801,-45.1457 -140.563,-43.98 -140.563,-43.98 L -140.149,-41.838 C -138.897,-42.0797 -137.631,-42.2479 -136.36,-42.3416 L -136.52,-44.5173 C -136.52,-44.5173 -136.595,-45.7047 -135.775,-47.8236 C -134.855,-47.8674 -133.933,-47.8778 -133.012,-47.8548 C -132.145,-45.755 -132.193,-44.5662 -132.193,-44.5662 L -132.304,-42.3874 C -131.031,-42.3225 -129.761,-42.1829 -128.504,-41.9695 L -128.139,-44.1204 M -69.6193,-87.6625 C -69.6193,-87.6625 -70.1339,-88.8206 -70.2766,-91.2704 C -69.3853,-91.657 -68.4843,-92.0214 -67.5748,-92.3631 C -65.9744,-90.5028 -65.5392,-89.3126 -65.5392,-89.3126 L -64.9076,-87.5506 C -63.6927,-87.9861 -62.4619,-88.3772 -61.2185,-88.7229 L -61.7199,-90.5264 C -61.7199,-90.5264 -62.0517,-91.7494 -61.8187,-94.1923 C -60.8789,-94.4384 -59.9328,-94.6609 -58.9819,-94.8598 C -57.6841,-92.777 -57.4358,-91.5343 -57.4358,-91.5343 L -57.0805,-89.6965 C -55.8134,-89.9415 -54.5373,-90.1401 -53.2557,-90.292 L -53.4759,-92.1509 C -53.4759,-92.1509 -53.6171,-93.4102 -53.014,-95.7889 C -52.0476,-95.8886 -51.0787,-95.9642 -50.1085,-96.0155 C -49.1439,-93.7591 -49.0881,-92.493 -49.0881,-92.493 L -49.0175,-90.6225 C -47.7279,-90.6712 -46.4364,-90.6727 -45.1467,-90.6272 L -45.0806,-92.4979 C -45.0806,-92.4979 -45.0279,-93.764 -44.0687,-96.0228 C -43.0984,-95.9737 -42.1293,-95.9005 -41.1626,-95.8032 C -40.5538,-93.4259 -40.692,-92.1662 -40.692,-92.1662 L -40.9077,-90.3068 C -39.6258,-90.1581 -38.3492,-89.9625 -37.0815,-89.7206 L -36.7306,-91.5592 C -36.7306,-91.5592 -36.4853,-92.8025 -35.1926,-94.8884 C -34.2411,-94.6918 -33.2945,-94.4715 -32.3541,-94.2278 C -32.1153,-91.7854 -32.4441,-90.5616 -32.4441,-90.5616 L -32.9412,-88.7569 C -31.6969,-88.4142 -30.4652,-88.026 -29.2493,-87.5934 L -28.6219,-89.357 C -28.6219,-89.357 -28.1896,-90.5483 -26.5936,-92.4124 C -25.6833,-92.0728 -24.7815,-91.7106 -23.8892,-91.3262 C -24.026,-88.876 -24.5378,-87.7167 -24.5378,-87.7167 L -25.3046,-86.0091 C -24.1272,-85.4804 -22.9692,-84.9088 -21.8336,-84.2957 L -20.9443,-85.9428 C -20.9443,-85.9428 -20.3352,-87.0541 -18.4734,-88.6527 C -17.6256,-88.1782 -16.7896,-87.6826 -15.9665,-87.1664 C -16.4757,-84.7659 -17.1585,-83.6983 -17.1585,-83.6983 L -18.1769,-82.1277 C -17.0941,-81.4256 -16.0369,-80.6838 -15.0081,-79.9045 L -13.8778,-81.3966 C -13.8778,-81.3966 -13.1063,-82.4019 -11.0222,-83.6976 C -10.2568,-83.0993 -9.50627,-82.4818 -8.77161,-81.8461 C -9.6413,-79.5514 -10.479,-78.6005 -10.479,-78.6005 L -11.7253,-77.2038 C -10.7623,-76.3446 -9.83071,-75.4502 -8.933,-74.523 L -7.58817,-75.825 C -7.58817,-75.825 -6.67221,-76.7008 -4.4148,-77.6631 C -3.74967,-76.955 -3.1022,-76.2302 -2.4732,-75.4898 C -3.68298,-73.3547 -4.65605,-72.5429 -4.65605,-72.5429 L -6.10088,-71.3528 C -5.28034,-70.3566 -4.49621,-69.3305 -3.75056,-68.2771 L -2.22274,-69.3586 C -2.22274,-69.3586 -1.18382,-70.0843 1.19403,-70.6908 C 1.74327,-69.8894 2.27251,-69.0743 2.78112,-68.2465 C 1.2596,-66.3211 0.174008,-65.6673 0.174008,-65.6673 L -1.43556,-64.7117 C -0.776703,-63.602 -0.158394,-62.4682 0.417724,-61.3133 L 2.09273,-62.149 C 2.09273,-62.149 3.23024,-62.7075 5.67281,-62.9439 C 6.09327,-62.0681 6.49189,-61.1817 6.86817,-60.286 C 5.07058,-58.6155 3.89791,-58.1351 3.89791,-58.1351 L 2.16134,-57.4364 C 2.64307,-56.2391 3.08106,-55.0242 3.47414,-53.7949 L 5.25707,-54.365 C 5.25707,-54.365 6.46651,-54.7434 8.91655,-54.6042 C 9.19838,-53.6744 9.45703,-52.7376 9.69217,-51.795 C 7.66064,-50.4184 6.42838,-50.1227 6.42838,-50.1227 L 4.60551,-49.6972 C 4.89883,-48.4404 5.14623,-47.1729 5.34705,-45.898 L 7.19612,-46.1893 C 7.19612,-46.1893 8.44914,-46.3787 10.8492,-45.8671 C 10.9858,-44.9052 11.0984,-43.9399 11.1869,-42.9724 C 8.96907,-41.922 7.70611,-41.8179 7.70611,-41.8179 L 5.83965,-41.6757 C 5.93768,-40.3888 5.9887,-39.0984 5.99257,-37.8078 L 7.86442,-37.8134 C 7.86442,-37.8134 9.13167,-37.8093 11.4255,-36.9373 C 11.4137,-35.9658 11.3776,-34.9947 11.3174,-34.025 C 8.9652,-33.3255 7.70113,-33.4153 7.70113,-33.4153 L 5.83485,-33.5597 C 5.73529,-32.273 5.58873,-30.9899 5.39554,-29.7139 L 7.24632,-29.4337 C 7.24632,-29.4337 8.49808,-29.2361 10.6319,-28.0242 C 10.472,-27.0659 10.2881,-26.1116 10.0805,-25.1625 C 7.64912,-24.8303 6.41358,-25.112 6.41358,-25.112 L 4.59121,-25.5396 C 4.2964,-24.2832 3.95569,-23.0375 3.56998,-21.8059 L 5.3563,-21.2465 C 5.3563,-21.2465 6.56323,-20.8602 8.48709,-19.3367 C 8.1827,-18.4141 7.8553,-17.4991 7.50529,-16.5927 C 5.05168,-16.6356 3.87362,-17.1026 3.87362,-17.1026 L 2.13788,-17.8034 C 1.65473,-16.6067 1.12786,-15.4276 0.558675,-14.2693 L 2.23866,-13.4437 C 2.23866,-13.4437 3.37247,-12.8777 5.04124,-11.0785 C 4.59958,-10.2131 4.13633,-9.35878 3.65208,-8.51651 C 1.23376,-8.9334 0.140803,-9.57478 0.140803,-9.57478 L -1.46763,-10.5323 C -2.12779,-9.42334 -2.82847,-8.33851 -3.5678,-7.28069 L -2.03353,-6.20836 C -2.03353,-6.20836 -0.999408,-5.47589 0.375156,-3.443 C -0.19343,-2.65521 -0.781663,-1.88159 -1.38881,-1.12311 C -3.71515,-1.90428 -4.69739,-2.70498 -4.69739,-2.70498 L -6.14081,-3.89679 C -6.96252,-2.90161 -7.82058,-1.93645 -8.71272,-1.00389 L -7.36012,0.290079 C -7.36012,0.290079 -6.44993,1.17183 -5.4018,3.39071 C -6.08397,4.08248 -6.78341,4.75724 -7.49922,5.41414 C -9.67905,4.28703 -10.5276,3.34577 -10.5276,3.34577 L -11.7721,1.94758 C -12.7361,2.80567 -13.7315,3.62853 -14.7555,4.41399 L -13.6163,5.89926 C -13.6163,5.89926 -12.8513,6.90961 -12.1542,9.26249 C -12.934,9.84202 -13.7282,10.4021 -14.5359,10.942 C -16.5182,9.49538 -17.213,8.43563 -17.213,8.43563 L -18.2296,6.86385 C -19.3133,7.56473 -20.4226,8.22601 -21.5545,8.84594 L -20.6553,10.4877 C -20.6553,10.4877 -20.0536,11.603 -19.7238,14.0347 C -20.5829,14.4884 -21.4533,14.9207 -22.334,15.331 C -24.0722,13.5987 -24.5971,12.4453 -24.5971,12.4453 L -25.3618,10.7368 C -26.5398,11.264 -27.737,11.7482 -28.9503,12.1881 L -28.3123,13.9479 C -28.3123,13.9479 -27.8879,15.1419 -27.9332,17.5955 C -28.8515,17.9127 -29.7777,18.2071 -30.7106,18.4782 C -32.164,16.5008 -32.5067,15.2808 -32.5067,15.2808 L -33.0017,13.4756 C -34.2463,13.8168 -35.5034,14.1126 -36.7697,14.3621 L -36.4078,16.1986 C -36.4078,16.1986 -36.1706,17.4435 -36.5899,19.8614 C -37.5458,20.0348 -38.5061,20.1843 -39.4695,20.3097 C -40.604,18.1337 -40.7565,16.8757 -40.7565,16.8757 L -40.9701,15.0161 C -42.2522,15.1633 -43.5398,15.2637 -44.8292,15.317 L -44.7519,17.1873 C -44.7519,17.1873 -44.7076,18.4538 -45.491,20.7793 C -46.4622,20.8047 -47.4341,20.8059 -48.4054,20.7828 C -49.1944,18.4591 -49.1531,17.1926 -49.1531,17.1926 L -49.0803,15.3221 C -50.3699,15.2719 -51.6576,15.1746 -52.9401,15.0305 L -53.1492,16.8906 C -53.1492,16.8906 -53.2987,18.149 -54.4279,20.3277 C -55.3917,20.2046 -56.3523,20.0574 -57.3087,19.8863 C -57.7338,17.4694 -57.4996,16.224 -57.4996,16.224 L -57.1421,14.3866 C -58.4089,14.1401 -59.6667,13.8474 -60.9122,13.5091 L -61.4028,15.3156 C -61.4028,15.3156 -61.7426,16.5364 -63.1912,18.5172 C -64.1248,18.2484 -65.0517,17.9563 -65.9708,17.6412 C -66.022,15.1878 -65.6004,13.9927 -65.6004,13.9927 L -64.9666,12.2314 C -66.181,11.7944 -67.3794,11.3131 -68.5586,10.7887 L -69.3192,12.4991 C -69.3192,12.4991 -69.8414,13.6537 -71.5754,15.3902 C -72.457,14.982 -73.3285,14.5518 -74.1887,14.1002 C -73.8647,11.6677 -73.2657,10.5509 -73.2657,10.5509 L -72.3705,8.90702 C -73.5039,8.28982 -74.6148,7.6312 -75.7002,6.93294 L -76.7129,8.50716 C -76.7129,8.50716 -77.4053,9.56857 -79.384,11.02 C -80.193,10.482 -80.9886,9.92383 -81.7697,9.34618 C -81.0783,6.99163 -80.3158,5.97944 -80.3158,5.97944 L -79.1801,4.49143 C -80.206,3.70844 -81.2034,2.88797 -82.1694,2.03221 L -83.4106,3.43338 C -83.4106,3.43338 -84.2569,4.37667 -86.434,5.50903 C -87.1514,4.85385 -87.8524,4.18078 -88.5363,3.49065 C -87.4935,1.26925 -86.5854,0.385314 -86.5854,0.385314 L -85.2359,-0.911899 C -86.1303,-1.84232 -86.9907,-2.80541 -87.8148,-3.79861 L -89.2553,-2.60333 C -89.2553,-2.60333 -90.2356,-1.80027 -92.5601,-1.01352 C -93.1691,-1.77053 -93.7591,-2.54273 -94.3296,-3.32916 C -92.9599,-5.36534 -91.9276,-6.1003 -91.9276,-6.1003 L -90.3959,-7.17631 C -91.1378,-8.23235 -91.8411,-9.3155 -92.5039,-10.4229 L -94.11,-9.46148 C -94.11,-9.46148 -95.2014,-8.81748 -97.6187,-8.39477 C -98.105,-9.23587 -98.5703,-10.0891 -99.0141,-10.9534 C -97.3496,-12.7566 -96.2172,-13.3254 -96.2172,-13.3254 L -94.5392,-14.155 C -95.1111,-15.3119 -95.6408,-16.4897 -96.1269,-17.6853 L -97.8609,-16.9803 C -97.8609,-16.9803 -99.0378,-16.5105 -101.491,-16.4617 C -101.844,-17.3672 -102.173,-18.2814 -102.48,-19.2033 C -100.56,-20.7314 -99.3535,-21.1206 -99.3535,-21.1206 L -97.5686,-21.6843 C -97.9573,-22.915 -98.301,-24.1599 -98.5988,-25.4156 L -100.42,-24.9836 C -100.42,-24.9836 -101.655,-24.6989 -104.087,-25.0253 C -104.297,-25.9739 -104.483,-26.9278 -104.645,-27.8857 C -102.515,-29.1027 -101.263,-29.3032 -101.263,-29.3032 L -99.4132,-29.5879 C -99.6094,-30.8634 -99.7591,-32.1462 -99.8617,-33.4327 L -101.728,-33.2838 C -101.728,-33.2838 -102.991,-33.1909 -105.345,-33.8847 C -105.408,-34.8543 -105.446,-35.8254 -105.46,-36.7968 C -103.169,-37.6743 -101.901,-37.6815 -101.901,-37.6815 L -100.03,-37.6804 C -100.029,-38.9709 -99.981,-40.2615 -99.886,-41.5486 L -101.753,-41.6863 C -101.753,-41.6863 -103.016,-41.7874 -105.236,-42.8324 C -105.15,-43.8001 -105.04,-44.7657 -104.906,-45.7279 C -102.507,-46.2453 -101.253,-46.059 -101.253,-46.059 L -99.4036,-45.7721 C -99.2058,-47.0475 -98.9615,-48.3156 -98.6712,-49.5731 L -100.495,-49.9941 C -100.495,-49.9941 -101.728,-50.2869 -103.763,-51.6586 C -103.53,-52.6018 -103.274,-53.5392 -102.994,-54.4697 C -100.544,-54.6148 -99.3339,-54.2393 -99.3339,-54.2393 L -97.5496,-53.6735 C -97.1595,-54.9037 -96.7245,-56.1196 -96.2456,-57.3181 L -97.9839,-58.0126 C -97.9839,-58.0126 -99.1577,-58.4902 -100.959,-60.1564 C -100.585,-61.053 -100.189,-61.9403 -99.7703,-62.8172 C -97.3272,-62.5866 -96.1883,-62.0308 -96.1883,-62.0308 L -94.5113,-61.1992 C -93.938,-62.3555 -93.3224,-63.4908 -92.6662,-64.6021 L -94.2781,-65.5538 C -94.2781,-65.5538 -95.3652,-66.205 -96.8914,-68.1267 C -96.3848,-68.9557 -95.8575,-69.772 -95.3102,-70.5748 C -92.9309,-69.974 -91.8902,-69.2508 -91.8902,-69.2508 L -90.3598,-68.173 C -89.6167,-69.2282 -88.835,-70.2562 -88.0169,-71.2543 L -89.4646,-72.4409 C -89.4646,-72.4409 -90.4396,-73.2504 -91.6545,-75.3825 C -91.0273,-76.1245 -90.3815,-76.8508 -89.7181,-77.5606 C -87.4584,-76.6036 -86.5403,-75.7301 -86.5403,-75.7301 L -85.1924,-74.4313 C -84.2969,-75.3607 -83.3675,-76.2573 -82.4066,-77.1188 L -83.6561,-78.5125 C -83.6561,-78.5125 -84.4962,-79.4614 -85.3714,-81.754 C -84.6382,-82.3915 -83.8892,-83.0107 -83.1252,-83.6109 C -81.0381,-82.3202 -80.2641,-81.3168 -80.2641,-81.3168 L -79.1302,-79.8274 C -78.1034,-80.6092 -77.0479,-81.3535 -75.9668,-82.0582 L -76.989,-83.6264 C -76.989,-83.6264 -77.6743,-84.6923 -78.1893,-87.0916 C -77.3674,-87.6098 -76.5327,-88.1074 -75.686,-88.5839 C -73.8203,-86.9898 -73.2086,-85.88 -73.2086,-85.88 L -72.3154,-84.235 C -71.1812,-84.8508 -70.0246,-85.4253 -68.8485,-85.9567 L -69.6193,-87.6625 M -44.637,53.1493 C -44.637,53.1493 -45.8483,53.204 -48.0316,52.391 C -48.0626,51.4494 -48.064,50.5068 -48.0357,49.5652 C -45.8548,48.7458 -44.6433,48.797 -44.6433,48.797 L -42.5676,48.903 C -42.5021,47.6203 -42.3739,46.3407 -42.1835,45.0704 L -44.2389,44.7624 C -44.2389,44.7624 -45.4365,44.5722 -47.4114,43.3363 C -47.2522,42.4077 -47.0638,41.4842 -46.8465,40.5674 C -44.5454,40.2039 -43.369,40.4979 -43.369,40.4979 L -41.3571,41.0196 C -41.0347,39.7763 -40.6515,38.5487 -40.2094,37.3428 L -42.1607,36.6273 C -42.1607,36.6273 -43.2955,36.1999 -44.9812,34.5918 C -44.6384,33.7142 -44.2679,32.8475 -43.8705,31.9933 C -41.5433,32.1004 -40.4501,32.6252 -40.4501,32.6252 L -38.5845,33.5412 C -38.0184,32.3882 -37.396,31.2629 -36.7201,30.1707 L -38.4874,29.077 C -38.4874,29.077 -39.513,28.43 -40.8404,26.5154 C -40.328,25.7249 -39.7907,24.9505 -39.2295,24.1937 C -36.9714,24.7671 -36.0063,25.5013 -36.0063,25.5013 L -34.3632,26.774 C -33.5767,25.7586 -32.7404,24.7816 -31.8585,23.8478 L -33.3695,22.4208 C -33.3695,22.4208 -34.2438,21.5805 -35.1587,19.4379 C -34.4976,18.7667 -33.8154,18.1163 -33.1134,17.4881 C -31.0169,18.5042 -30.2194,19.4176 -30.2194,19.4176 L -28.8661,20.9951 C -27.8913,20.1588 -26.8755,19.3702 -25.8237,18.633 L -27.0165,16.931 C -27.0165,16.931 -27.7037,15.9319 -28.1686,13.6491 C -27.386,13.1246 -26.5868,12.6249 -25.7726,12.1508 C -23.9237,13.5682 -23.3263,14.6235 -23.3263,14.6235 L -22.3183,16.441 C -21.195,15.8181 -20.0413,15.2501 -18.8626,14.7397 L -19.6884,12.8324 C -19.6884,12.8324 -20.1605,11.7155 -20.1563,9.38577 C -19.2841,9.02964 -18.4007,8.701 -17.5078,8.40049 C -15.982,10.1611 -15.6093,11.315 -15.6093,11.315 L -14.9878,13.2982 C -13.7621,12.9141 -12.5177,12.59 -11.2604,12.3274 L -11.6853,10.2929 C -11.6853,10.2929 -11.9229,9.10382 -11.4498,6.82261 C -10.5238,6.64935 -9.59228,6.50527 -8.65717,6.39065 C -7.51701,8.42233 -7.3842,9.62763 -7.3842,9.62763 L -7.17465,11.6954 C -5.89676,11.5659 -4.61253,11.4989 -3.3281,11.4947 L -3.33484,9.41639 C -3.33484,9.41639 -3.32817,8.20381 -2.40559,6.06453 C -1.46363,6.08122 -0.522196,6.1276 0.416846,6.20357 C 1.12469,8.42317 1.01216,9.63053 1.01216,9.63053 L 0.801177,11.6982 C 2.07898,11.8286 3.3504,12.0214 4.60938,12.2759 L 5.02114,10.2387 C 5.02114,10.2387 5.27177,9.05233 6.6061,7.14256 C 7.52542,7.34852 8.43825,7.58346 9.34277,7.8469 C 9.58933,10.1636 9.23606,11.3236 9.23606,11.3236 L 8.61318,13.3064 C 9.83858,13.6913 11.0451,14.1362 12.2271,14.6389 L 13.0405,12.7263 C 13.0405,12.7263 13.5249,11.6146 15.2163,10.0126 C 16.0754,10.3994 16.9222,10.8132 17.7552,11.2534 C 17.5304,13.5722 16.9508,14.6374 16.9508,14.6374 L 15.9415,16.4542 C 17.0644,17.078 18.1567,17.7566 19.2133,18.4869 L 20.395,16.7773 C 20.395,16.7773 21.0932,15.7858 23.0726,14.557 C 23.8361,15.1088 24.5823,15.6847 25.3097,16.2835 C 24.6227,18.5097 23.8406,19.4363 23.8406,19.4363 L 22.4862,21.0128 C 23.4605,21.8498 24.3939,22.7345 25.2818,23.6625 L 26.7836,22.2257 C 26.7836,22.2257 27.667,21.3951 29.8532,20.5899 C 30.4901,21.2841 31.1051,21.9984 31.697,22.7314 C 30.5759,24.7737 29.6233,25.5239 29.6233,25.5239 L 27.9793,26.7956 C 28.7652,27.8115 29.5013,28.8659 30.1843,29.9538 L 31.9445,28.8487 C 31.9445,28.8487 32.9771,28.2129 35.2806,27.8643 C 35.7647,28.6725 36.2233,29.4959 36.6556,30.333 C 35.1463,32.1078 34.0622,32.651 34.0622,32.651 L 32.1959,33.5657 C 32.7612,34.719 33.27,35.9 33.72,37.1031 L 35.6666,36.3749 C 35.6666,36.3749 36.8061,35.96 39.1326,36.0822 C 39.4441,36.9713 39.7276,37.8703 39.9825,38.7772 C 38.1469,40.2119 36.9756,40.5257 36.9756,40.5257 L 34.9634,41.046 C 35.2849,42.2895 35.5456,43.5488 35.7442,44.8178 L 37.7976,44.4964 C 37.7976,44.4964 38.9972,44.3194 41.2515,44.9073 C 41.3776,45.841 41.4743,46.7786 41.5414,47.7183 C 39.4546,48.7541 38.2441,48.8257 38.2441,48.8257 L 36.1684,48.9302 C 36.233,50.213 36.2349,51.499 36.174,52.782 L 38.25,52.8805 C 38.25,52.8805 39.4607,52.9486 41.5505,53.9784 C 41.4861,54.9183 41.3921,55.8561 41.2687,56.7901 C 39.0161,57.3847 37.816,57.2111 37.816,57.2111 L 35.7617,56.8957 C 35.5667,58.1652 35.3097,59.4253 34.9918,60.6697 L 37.0055,61.1841 C 37.0055,61.1841 38.1777,61.4945 40.0174,62.9239 C 39.7652,63.8316 39.4843,64.7314 39.1754,65.6214 C 36.8492,65.7503 35.7086,65.3387 35.7086,65.3387 L 33.7599,64.6162 C 33.3133,65.8205 32.8079,67.003 32.246,68.158 L 34.1149,69.0673 C 34.1149,69.0673 35.2007,69.6073 36.715,71.3777 C 36.2852,72.216 35.829,73.0408 35.3472,73.8505 C 33.0427,73.5085 32.0083,72.8757 32.0083,72.8757 L 30.2449,71.7757 C 29.5651,72.8655 28.832,73.9221 28.0491,74.9403 L 29.6967,76.2071 C 29.6967,76.2071 30.6515,76.9547 31.7785,78.9937 C 31.1887,79.7283 30.5758,80.4444 29.9409,81.1405 C 27.7524,80.3416 26.8665,79.5136 26.8665,79.5136 L 25.3606,78.0811 C 24.4754,79.0118 23.5446,79.8991 22.5727,80.7389 L 23.9316,82.3115 C 23.9316,82.3115 24.7164,83.2359 25.4099,85.46 C 24.6843,86.0609 23.9398,86.639 23.1778,87.193 C 21.1949,85.9699 20.4938,84.9805 20.4938,84.9805 L 19.3071,83.2743 C 18.2527,84.0077 17.1623,84.6895 16.0413,85.3165 L 17.0558,87.1304 C 17.0558,87.1304 17.6384,88.1938 17.87,90.512 C 17.0383,90.9546 16.1926,91.3709 15.3347,91.7602 C 13.6386,90.163 13.1511,89.0528 13.1511,89.0528 L 12.3321,87.1425 C 11.1516,87.6487 9.94636,88.097 8.72208,88.4855 L 9.35069,90.4665 C 9.35069,90.4665 9.70732,91.6255 9.46748,93.9429 C 8.56372,94.2089 7.65158,94.4465 6.73286,94.6551 C 5.39301,92.7492 5.13894,91.5635 5.13894,91.5635 L 4.72127,89.5276 C 3.46304,89.7857 2.19218,89.9823 0.914764,90.1164 L 1.13173,92.1834 C 1.13173,92.1834 1.24777,93.3904 0.546353,95.612 C -0.392465,95.6907 -1.33376,95.7398 -2.27567,95.7593 C -3.20444,93.6227 -3.21463,92.4101 -3.21463,92.4101 L -3.21391,90.3317 C -4.49835,90.3313 -5.78276,90.268 -7.06102,90.1422 L -7.26458,92.2106 C -7.26458,92.2106 -7.3939,93.4163 -8.52816,95.4512 C -9.46361,95.3393 -10.3955,95.198 -11.3221,95.0274 C -11.8017,92.7476 -11.5676,91.5578 -11.5676,91.5578 L -11.1485,89.5221 C -12.4066,89.2631 -13.652,88.9426 -14.8787,88.562 L -15.4945,90.5471 C -15.4945,90.5471 -15.8639,91.7021 -17.3846,93.4671 C -18.2783,93.1691 -19.1627,92.8431 -20.0359,92.4895 C -20.0469,90.1597 -19.578,89.0414 -19.578,89.0414 L -18.7578,87.1318 C -19.9379,86.6249 -21.0933,86.0602 -22.2184,85.4405 L -23.2211,87.261 C -23.2211,87.261 -23.8154,88.318 -25.6602,89.7407 C -26.4757,89.269 -27.2764,88.7715 -28.0606,88.2494 C -27.6023,85.9652 -26.918,84.9641 -26.918,84.9641 L -25.7301,83.2587 C -26.784,82.5246 -27.8021,81.7389 -28.7794,80.9054 L -30.128,82.4868 C -30.128,82.4868 -30.9229,83.4025 -33.0164,84.4247 C -33.7203,83.7985 -34.4044,83.1501 -35.0674,82.4808 C -34.1587,80.3356 -33.2869,79.4928 -33.2869,79.4928 L -31.78,78.0614 C -32.6646,77.1301 -33.5037,76.1556 -34.2932,75.1424 L -35.9325,76.42 C -35.9325,76.42 -36.8955,77.1569 -39.1519,77.7368 C -39.7153,76.9817 -40.2549,76.2089 -40.7696,75.4198 C -39.4477,73.5014 -38.424,72.8514 -38.424,72.8514 L -36.6599,71.7526 C -37.3389,70.6623 -37.9646,69.5389 -38.534,68.3875 L -40.397,69.3089 C -40.397,69.3089 -41.4886,69.8369 -43.8156,69.9507 C -44.2154,69.0977 -44.5884,68.232 -44.9337,67.3555 C -43.2527,65.7425 -42.1191,65.3118 -42.1191,65.3118 L -40.1699,64.5907 C -40.6156,63.386 -41.0023,62.1596 -41.3283,60.9172 L -43.3386,61.4447 C -43.3386,61.4447 -44.5142,61.7421 -46.8164,61.3852 C -47.0363,60.4692 -47.2274,59.5461 -47.3892,58.618 C -45.4179,57.3764 -44.2209,57.1828 -44.2209,57.1828 L -42.1664,56.8687 C -42.3604,55.5991 -42.4924,54.3199 -42.5616,53.0373 L -44.637,53.1493"
     transform="matrix(0.5706213,0,0,0.5581672,102.68855,57.761311)"
     inkscape:path-effect="#path-effect2542" />
  <flowRoot
     xml:space="preserve"
     id="flowRoot3475"
     style="font-size:24.69482612999999915px;font-style:normal;font-variant:normal;font-weight:bold;font-stretch:condensed;text-align:start;line-height:125%;writing-mode:lr-tb;text-anchor:start;fill:#080041;fill-opacity:0.91666669;stroke:none;stroke-width:1px;stroke-linecap:butt;stroke-linejoin:miter;stroke-opacity:1;font-family:Helvetica Neue;-inkscape-font-specification:Helvetica Neue Bold Condensed"
     transform="matrix(2.594353,0,0,3.2766044,-235.90977,-58.719492)"><flowRegion
       id="flowRegion3477"
       style="fill:url(#radialGradient3428);fill-opacity:1"><rect
         id="rect3479"
         width="199.42542"
         height="74.092079"
         x="122.56354"
         y="19.826887"
         style="font-size:24.69482612999999915px;font-style:normal;font-variant:normal;font-weight:bold;font-stretch:condensed;text-align:start;line-height:125%;writing-mode:lr-tb;text-anchor:start;fill:#080041;fill-opacity:0.91666669;stroke:none;stroke-opacity:1;font-family:Helvetica Neue;-inkscape-font-specification:Helvetica Neue Bold Condensed" /></flowRegion><flowPara
       id="flowPara3483"
       style="fill:#080041;fill-opacity:0.91666669">Bigtable</flowPara></flowRoot></svg>
